<svg width="24" height="24" viewBox="0 0 24 24" fill="none" xmlns="http://www.w3.org/2000/svg">
<path fill-rule="evenodd" clip-rule="evenodd" d="M11.775 0.776855C5.42504 0.776855 0.275879 5.92507 0.275879 12.276C0.275879 17.3566 3.57073 21.6669 8.13968 23.1875C8.71437 23.2939 8.92535 22.938 8.92535 22.6343C8.92535 22.3601 8.91469 21.4542 8.90974 20.4934C5.71067 21.189 5.03563 19.1366 5.03563 19.1366C4.51255 17.8075 3.75886 17.4541 3.75886 17.4541C2.71555 16.7404 3.83751 16.755 3.83751 16.755C4.99222 16.8362 5.60023 17.94 5.60023 17.94C6.62583 19.698 8.2903 19.1898 8.94649 18.8959C9.0497 18.1527 9.34771 17.6455 9.67656 17.3583C7.12245 17.0675 4.43752 16.0815 4.43752 11.6754C4.43752 10.4199 4.88672 9.39415 5.62232 8.58886C5.50292 8.29923 5.10932 7.12967 5.73371 5.54575C5.73371 5.54575 6.69934 5.2367 8.89679 6.72445C9.81405 6.46967 10.7978 6.3419 11.775 6.33752C12.7522 6.3419 13.7367 6.46967 14.6557 6.72445C16.8505 5.2367 17.8148 5.54575 17.8148 5.54575C18.4407 7.12967 18.0469 8.29923 17.9275 8.58886C18.6648 9.39415 19.111 10.4199 19.111 11.6754C19.111 16.092 16.4209 17.0645 13.8603 17.3492C14.2727 17.706 14.6403 18.4058 14.6403 19.4786C14.6403 21.0172 14.6269 22.2555 14.6269 22.6343C14.6269 22.9403 14.8339 23.2989 15.4168 23.1859C19.9833 21.6637 23.2739 17.3549 23.2739 12.276C23.2739 5.92507 18.1255 0.776855 11.775 0.776855ZM4.58267 17.1576C4.55735 17.2147 4.46747 17.2319 4.38559 17.1926C4.30218 17.1551 4.25534 17.0772 4.28238 17.0199C4.30713 16.9611 4.3972 16.9447 4.48042 16.9841C4.56401 17.0216 4.61162 17.1003 4.58267 17.1576ZM5.1483 17.6623C5.09346 17.7131 4.98625 17.6895 4.91351 17.6092C4.8383 17.529 4.82421 17.4218 4.87981 17.3702C4.93636 17.3193 5.04033 17.3432 5.11574 17.4233C5.19096 17.5044 5.20562 17.6109 5.1483 17.6623ZM5.53634 18.308C5.46589 18.357 5.35068 18.3111 5.27947 18.2088C5.20901 18.1066 5.20901 17.9839 5.28099 17.9348C5.3524 17.8857 5.46589 17.9299 5.53806 18.0314C5.60832 18.1353 5.60832 18.258 5.53634 18.308ZM6.19261 19.0559C6.12958 19.1254 5.99533 19.1068 5.89708 19.0119C5.79653 18.9192 5.76854 18.7876 5.83176 18.7181C5.89555 18.6484 6.03056 18.668 6.12958 18.7621C6.22936 18.8546 6.25983 18.9872 6.19261 19.0559ZM7.04076 19.3084C7.01296 19.3985 6.88367 19.4394 6.75342 19.4011C6.62336 19.3617 6.53824 19.2562 6.56452 19.1652C6.59156 19.0746 6.72143 19.0319 6.85263 19.0728C6.9825 19.1121 7.0678 19.2168 7.04076 19.3084ZM8.006 19.4155C8.00924 19.5103 7.8988 19.589 7.76207 19.5907C7.62459 19.5937 7.51338 19.517 7.51186 19.4237C7.51186 19.3279 7.61983 19.25 7.75731 19.2477C7.89403 19.2451 8.006 19.3212 8.006 19.4155ZM8.95424 19.3791C8.97062 19.4717 8.8756 19.5667 8.73983 19.592C8.60634 19.6164 8.48276 19.5593 8.46581 19.4675C8.44925 19.3727 8.54598 19.2776 8.67927 19.2531C8.81523 19.2295 8.93691 19.2851 8.95424 19.3791Z" fill="white"/>
</svg>
