<svg width="26" height="26" viewBox="0 0 26 26" fill="none" xmlns="http://www.w3.org/2000/svg">
<path d="M6.41923 8.94971H1.4043V24.942H6.41923V8.94971Z" stroke="#FAFAFA" stroke-width="1.5"/>
<path d="M19.5383 8.10321C19.3534 8.0801 19.157 8.06855 18.9605 8.05699C16.1526 7.94144 14.5696 9.60538 14.0149 10.3218C13.8647 10.5182 13.7954 10.6338 13.7954 10.6338V8.49609H9V24.4884H13.7954H14.0149C14.0149 22.8591 14.0149 21.2414 14.0149 19.6121C14.0149 18.7339 14.0149 17.8557 14.0149 16.9776C14.0149 15.8914 13.934 14.7359 14.4771 13.7421C14.9393 12.9102 15.7713 12.4942 16.7073 12.4942C19.4805 12.4942 19.5383 15.0016 19.5383 15.2327C19.5383 15.2443 19.5383 15.2558 19.5383 15.2558V24.5577H24.5532V14.1234C24.5532 10.5529 22.7391 8.44987 19.5383 8.10321Z" stroke="#FAFAFA" stroke-width="1.5"/>
<path d="M3.91189 6.88141C5.52008 6.88141 6.82379 5.57771 6.82379 3.96951C6.82379 2.36132 5.52008 1.05762 3.91189 1.05762C2.30369 1.05762 1 2.36132 1 3.96951C1 5.57771 2.30369 6.88141 3.91189 6.88141Z" stroke="#FAFAFA" stroke-width="1.5"/>
</svg>
