<svg width="32" height="32" viewBox="0 0 32 32" fill="none" xmlns="http://www.w3.org/2000/svg">
<path fill-rule="evenodd" clip-rule="evenodd" d="M12.42 10.1115C16.2608 5.17728 22.2594 2.00029 29 2C29.2652 1.99999 29.5196 2.10534 29.7071 2.29288C29.8947 2.48042 30 2.73478 30 3C30 9.74085 26.823 15.74 21.8886 19.5811C21.962 20.0438 22 20.5178 22 21C22 25.9706 17.9706 30 13 30C12.4477 30 12 29.5523 12 29V23.4913C11.9877 23.4824 11.9755 23.4732 11.9635 23.4637C10.6942 22.4572 9.54399 21.307 8.53749 20.0377C8.52769 20.0253 8.51821 20.0127 8.50905 20H3C2.44772 20 2 19.5523 2 19C2 14.0294 6.02944 10 11 10C11.4826 10 11.957 10.0381 12.42 10.1115ZM20 9C18.3431 9 17 10.3431 17 12C17 13.6569 18.3431 15 20 15C21.6569 15 23 13.6569 23 12C23 10.3431 21.6569 9 20 9Z" fill="#00EBF0"/>
<path d="M7.01382 22.9891C7.4565 22.6589 7.54765 22.0323 7.21742 21.5896C6.88718 21.1469 6.26062 21.0558 5.81794 21.386C4.10945 22.6605 3 24.7008 3 26.9999C3 27.3673 3.02839 27.7287 3.08327 28.082C3.15012 28.5122 3.48766 28.8498 3.9179 28.9166C4.27115 28.9715 4.6326 28.9999 5 28.9999C7.29912 28.9999 9.33936 27.8904 10.6139 26.182C10.9441 25.7393 10.8529 25.1127 10.4103 24.7825C9.96759 24.4522 9.34102 24.5434 9.01079 24.9861C8.09751 26.2103 6.64109 26.9999 5 26.9999C5 25.3588 5.78957 23.9024 7.01382 22.9891Z" fill="#00EBF0"/>
</svg>
