<svg width="23" height="17" viewBox="0 0 23 17" fill="none" xmlns="http://www.w3.org/2000/svg">
<path d="M10.9773 0.454544V5.36364C10.9773 6.75757 10.7045 8.18182 10.1591 9.63636C9.62879 11.0758 8.91667 12.4394 8.02273 13.7273C7.12879 15 6.15152 16.0833 5.09091 16.9773L0.818182 14.4545C1.57576 13.2576 2.24242 11.9318 2.81818 10.4773C3.40909 9.02273 3.70455 7.33333 3.70455 5.40909V0.454544H10.9773ZM22.4091 0.454544V5.36364C22.4091 6.75757 22.1364 8.18182 21.5909 9.63636C21.0606 11.0758 20.3485 12.4394 19.4545 13.7273C18.5606 15 17.5758 16.0833 16.5 16.9773L12.2273 14.4545C13 13.2576 13.6742 11.9318 14.25 10.4773C14.8409 9.02273 15.1364 7.33333 15.1364 5.40909V0.454544H22.4091Z" fill="#FAFAFA"/>
</svg>
