<svg width="32" height="32" viewBox="0 0 32 32" fill="none" xmlns="http://www.w3.org/2000/svg">
<path d="M23.9754 24.9664C22.1495 22.5566 19.2565 21 16 21C12.7435 21 9.85052 22.5566 8.02462 24.9664M23.9754 24.9664C26.4447 22.7685 28 19.5659 28 16C28 9.37258 22.6274 4 16 4C9.37258 4 4 9.37258 4 16C4 19.5659 5.55534 22.7685 8.02462 24.9664M23.9754 24.9664C21.8553 26.8535 19.0616 28 16 28C12.9384 28 10.1447 26.8535 8.02462 24.9664M20 13C20 15.2091 18.2091 17 16 17C13.7909 17 12 15.2091 12 13C12 10.7909 13.7909 9 16 9C18.2091 9 20 10.7909 20 13Z" stroke="#FAFAFA" stroke-width="1.5" stroke-linecap="round" stroke-linejoin="round"/>
</svg>
