<svg width="32" height="32" viewBox="0 0 32 32" fill="none" xmlns="http://www.w3.org/2000/svg">
<path d="M9.99041 24.6667C9.4243 24.6667 8.89728 24.3514 8.69012 23.8246C8.24465 22.6917 8 21.4578 8 20.1667C8 17.8346 8.79832 15.689 10.1366 13.9881C10.3378 13.7324 10.6327 13.5762 10.9362 13.4587C11.5666 13.2146 12.1234 12.773 12.5521 12.2263C13.583 10.9119 14.8823 9.81794 16.3674 9.02703C17.3302 8.51426 18.1657 7.75246 18.5709 6.7396C18.8543 6.03088 19 5.27457 19 4.51125V3.66675C19 3.11446 19.4477 2.66675 20 2.66675C21.6569 2.66675 23 4.00989 23 5.66675C23 7.20225 22.6539 8.65693 22.0355 9.95702C21.6814 10.7015 22.1782 11.6667 23.0025 11.6667H27.1703C28.5392 11.6667 29.7644 12.5921 29.9093 13.9532C29.9693 14.5162 30 15.0879 30 15.6667C30 19.4636 28.6775 22.9515 26.468 25.695C25.9512 26.3368 25.1523 26.6667 24.3283 26.6667H18.9737C18.3288 26.6667 17.6881 26.5628 17.0763 26.3588L12.9237 24.9746C12.3119 24.7707 11.6712 24.6667 11.0263 24.6667H9.99041Z" fill="#00EBF0"/>
<path d="M3.10865 14.3029C2.39307 16.1187 2 18.0968 2 20.1667C2 21.7935 2.24278 23.3636 2.69408 24.8427C3.03989 25.9761 4.1389 26.6667 5.32385 26.6667H6.53423C7.12826 26.6667 7.49516 26.0024 7.23231 25.4697C6.4433 23.8706 6 22.0705 6 20.1667C6 17.8892 6.63451 15.7598 7.73641 13.9458C8.06307 13.408 7.69871 12.6667 7.06949 12.6667H5.66581C4.55644 12.6667 3.5154 13.2708 3.10865 14.3029Z" fill="#00EBF0"/>
</svg>
