<svg width="32" height="32" viewBox="0 0 32 32" fill="none" xmlns="http://www.w3.org/2000/svg">
<path d="M16 20C18.2091 20 20 18.2091 20 16C20 13.7909 18.2091 12 16 12C13.7909 12 12 13.7909 12 16C12 18.2091 13.7909 20 16 20Z" fill="#00EBF0"/>
<path fill-rule="evenodd" clip-rule="evenodd" d="M1.76455 15.2623C3.74755 9.30095 9.37055 5 16.0007 5C22.6277 5 28.2486 9.29695 30.2341 15.2539C30.3945 15.7354 30.3947 16.2562 30.2345 16.7377C28.2515 22.6991 22.6285 27 15.9984 27C9.3713 27 3.75045 22.7031 1.76498 16.7461C1.60453 16.2647 1.60438 15.7438 1.76455 15.2623ZM23 16C23 19.866 19.866 23 16 23C12.134 23 9 19.866 9 16C9 12.134 12.134 9 16 9C19.866 9 23 12.134 23 16Z" fill="#00EBF0"/>
</svg>
